<?xml version="1.0" encoding="utf-8"?>
<svg version="1.1" id="Layer_1" xmlns="http://www.w3.org/2000/svg" width="100" height="100" viewBox="0 0 100 100">
    <path style="fill:#175ede;stroke-width:.353553" d="M68.059 49.935V3.611l1.435.364c2.504.636 1.836-.444 18.072 29.198 5.634 10.285 9.486 17.693 9.391 18.056-.165.633-18.644 34.057-22.043 39.872-2.073 3.546-3.324 4.685-5.457 4.971l-1.398.188ZM46.957 96.538c-.62-.378-1.296-1.003-1.503-1.39-.26-.486-.376-14.452-.376-45.268V5.314l1.02-1.14c.928-1.04 1.235-1.153 3.446-1.274 2.095-.115 2.596-.019 3.65.697.673.457 1.333 1.226 1.468 1.71s.26 20.772.28 45.084c.04 48.636.198 45.125-2.09 46.308-1.472.761-4.52.678-5.895-.161zm-17.293-1.045c-.798-.362-1.774-1.114-2.17-1.672C26.123 91.894 2.888 49.534 2.89 48.967c.002-.396 15.605-27.885 21.01-37.015 3.539-5.976 4.617-7.217 6.947-7.996l1.149-.384V49.87c0 36.807-.091 46.296-.442 46.29-.243-.005-1.094-.304-1.891-.666z"/>
</svg>
